<?xml version="1.0" encoding="UTF-8" standalone="no"?>
<!-- Generator: Adobe Illustrator 22.0.1, SVG Export Plug-In . SVG Version: 6.00 Build 0)  -->

<svg
   xmlns:dc="http://purl.org/dc/elements/1.1/"
   xmlns:cc="http://creativecommons.org/ns#"
   xmlns:rdf="http://www.w3.org/1999/02/22-rdf-syntax-ns#"
   xmlns:svg="http://www.w3.org/2000/svg"
   xmlns="http://www.w3.org/2000/svg"
   xmlns:sodipodi="http://sodipodi.sourceforge.net/DTD/sodipodi-0.dtd"
   xmlns:inkscape="http://www.inkscape.org/namespaces/inkscape"
   version="1.1"
   id="a3321f53-1341-4c56-82b7-07f548a4d8ce"
   x="0px"
   y="0px"
   viewBox="0 0 74.8 84.1"
   style="enable-background:new 0 0 74.8 84.1;"
   xml:space="preserve"
   sodipodi:docname="rightmesh.svg"
   inkscape:export-filename="/home/lucien/work/rightmesh/code/kisspack/static/img/rightmesh.png"
   inkscape:export-xdpi="192.51337"
   inkscape:export-ydpi="192.51337"
   inkscape:version="0.92.4 5da689c313, 2019-01-14"><metadata
   id="metadata973"><rdf:RDF><cc:Work
       rdf:about=""><dc:format>image/svg+xml</dc:format><dc:type
         rdf:resource="http://purl.org/dc/dcmitype/StillImage" /></cc:Work></rdf:RDF></metadata><defs
   id="defs971">
		
		
		
		
		
		
		
		
		
		
		
		
		
		
		
		
		
		
		
	</defs><sodipodi:namedview
   pagecolor="#ffffff"
   bordercolor="#666666"
   borderopacity="1"
   objecttolerance="10"
   gridtolerance="10"
   guidetolerance="10"
   inkscape:pageopacity="0"
   inkscape:pageshadow="2"
   inkscape:window-width="1890"
   inkscape:window-height="998"
   id="namedview969"
   showgrid="false"
   inkscape:zoom="7.2476344"
   inkscape:cx="21.307442"
   inkscape:cy="34.56209"
   inkscape:window-x="15"
   inkscape:window-y="67"
   inkscape:window-maximized="0"
   inkscape:current-layer="g966" />
<style
   type="text/css"
   id="style914">
	.st0{fill:#D3D3D3;}
	.st1{fill:#01434F;}
	.st2{fill:#00AA81;}
</style>
<title
   id="title916">RightMesh_Logo_Color</title>
<g
   id="g966">
	<path
   class="st0"
   d="M71.5,60.8V23.6c0-0.2-0.1-0.4-0.3-0.5L39,4.4h-0.6L6.2,23.1c-0.2,0.1-0.3,0.3-0.3,0.5v37.2   c0,0.2,0.1,0.4,0.3,0.5L38.4,80c0.2,0.1,0.4,0.1,0.6,0l32.2-18.7C71.4,61.2,71.5,61,71.5,60.8z M23.5,14.4l15.2-8.8l15.7,9.1l0,0   l-0.2,17.4H54l-15-9c-0.2-0.1-0.4-0.1-0.6,0L23.6,32l-0.2-17.5h0.1L23.5,14.4z M39.3,42.8l14.9-8.5v16.5h-0.1l-14.8,9V42.8z    M38.7,41.8h-0.1l-14.9-8.5h0.2l14.7-8.8h0.1l14.9,8.9L38.7,41.8z M23.2,34.3l14.9,8.5v17h-0.2l-14.7-9V34.3z M7.4,24L7.4,24   l14.9-8.5l0.2,17.2h-0.1L22.2,33h-0.1L7.2,41.1L7.4,24z M22.9,69.5L7.2,60.4V42.6h0.1l14.8-8.1v16.7c0,0.2,0.1,0.4,0.3,0.5   l15.3,9.2h-0.2L23,69.6h-0.1L22.9,69.5z M38.7,78.8l-14.6-8.5l14.6-8.8l0,0l14.6,8.8L38.7,78.8z M70.3,60.5l-15.8,9.2l-14.7-8.9H40   l15.1-9.1c0.2-0.1,0.3-0.3,0.3-0.5V34.3h0.2l14.7,8v18.1V60.5z M70.3,41h-0.2l-14.7-8l0,0l0.2-17.3l14.8,8.5v17L70.3,41z"
   id="path918"
   style="fill:#ffffff;fill-opacity:1" />
	<rect
   x="5.3"
   y="55.5"
   transform="matrix(0.8572 -0.515 0.515 0.8572 -26.7525 15.5447)"
   class="st0"
   width="18.8"
   height="1.1"
   id="rect920"
   style="fill:#ffffff;fill-opacity:1" />
	
		<rect
   x="62.2"
   y="44.4"
   transform="matrix(0.5101 -0.8601 0.8601 0.5101 -15.5077 80.2839)"
   class="st0"
   width="1.1"
   height="18.8"
   id="rect922"
   style="fill:#ffffff;fill-opacity:1" />
	<polygon
   class="st1"
   points="38.9,80.1 21.9,70.4 23.1,69.7 54.4,50.9 54.4,33.3 53.8,33.3 38.8,24.4 38.9,24.1 38.3,24.1    38.3,4.9 39.4,4.9 39.4,23.3 55.5,33.1 55.6,51 54.9,51.9 24.3,70.4 38.9,78.8  "
   id="polygon924"
   style="fill:#ffffff;fill-opacity:1" />
	<circle
   style="fill:#ffffff;fill-opacity:1"
   id="circle926"
   r="6.0999999"
   cy="78"
   cx="39.599998"
   class="st1" /><circle
   style="fill:#ffffff;fill-opacity:1"
   id="circle928"
   r="6.0999999"
   cy="41.099998"
   cx="6.0999999"
   class="st2" /><circle
   style="fill:#ffffff;fill-opacity:1"
   id="circle930"
   r="6.0999999"
   cy="33"
   cx="53.700001"
   class="st1" /><circle
   style="fill:#ffffff;fill-opacity:1"
   id="circle932"
   r="4.5"
   cy="4.5"
   cx="38.299999"
   class="st1" /><circle
   style="fill:#ffffff;fill-opacity:1"
   id="circle934"
   r="4.5"
   cy="69.599998"
   cx="22.799999"
   class="st1" /><circle
   style="fill:#ffffff;fill-opacity:1"
   id="circle936"
   r="4.5"
   cy="41.599998"
   cx="38.299999"
   class="st2" /><circle
   style="fill:#ffffff;fill-opacity:1"
   id="circle938"
   r="4.5"
   cy="60"
   cx="70.300003"
   class="st2" /><circle
   style="fill:#ffffff;fill-opacity:1"
   id="circle940"
   r="4.5"
   cy="23.1"
   cx="6.0999999"
   class="st2" /><circle
   style="fill:#ffffff;fill-opacity:1"
   id="circle942"
   r="4.5"
   cy="23.6"
   cx="70.300003"
   class="st2" /><circle
   style="fill:#ffffff;fill-opacity:1"
   id="circle944"
   r="3.0999999"
   cy="60"
   cx="6.0999999"
   class="st2" /><circle
   style="fill:#ffffff;fill-opacity:1"
   id="circle946"
   r="3.0999999"
   cy="33"
   cx="22.299999"
   class="st2" /><circle
   style="fill:#ffffff;fill-opacity:1"
   id="circle948"
   r="3.0999999"
   cy="14.2"
   cx="22.299999"
   class="st2" /><circle
   style="fill:#ffffff;fill-opacity:1"
   id="circle950"
   r="3.0999999"
   cy="50.599998"
   cx="22.299999"
   class="st2" /><circle
   style="fill:#ffffff;fill-opacity:1"
   id="circle952"
   r="3.0999999"
   cy="60.900002"
   cx="38.299999"
   class="st1" /><circle
   style="fill:#ffffff;fill-opacity:1"
   id="circle954"
   r="3.0999999"
   cy="50.599998"
   cx="54.099998"
   class="st1" /><circle
   style="fill:#ffffff;fill-opacity:1"
   id="circle956"
   r="3.0999999"
   cy="69.599998"
   cx="53.700001"
   class="st2" /><circle
   style="fill:#ffffff;fill-opacity:1"
   id="circle958"
   r="3.0999999"
   cy="41.099998"
   cx="70.300003"
   class="st2" /><circle
   style="fill:#ffffff;fill-opacity:1"
   id="circle960"
   r="3.0999999"
   cy="23.299999"
   cx="38.099998"
   class="st1" /><circle
   style="fill:#ffffff;fill-opacity:1"
   id="circle962"
   r="3.0999999"
   cy="13.5"
   cx="54.099998"
   class="st2" />
</g>
</svg>